<?xml version="1.0" encoding="utf-8"?>
<!-- Generator: Adobe Illustrator 27.5.0, SVG Export Plug-In . SVG Version: 6.00 Build 0)  -->
<svg version="1.1" xmlns="http://www.w3.org/2000/svg" xmlns:xlink="http://www.w3.org/1999/xlink" x="0px" y="0px"
	 viewBox="0 0 500 500" style="enable-background:new 0 0 500 500;" xml:space="preserve">
<g id="BACKGROUND">
	<rect style="fill:#1A2133;" width="500" height="500"/>
</g>
<g id="OBJECTS">
	<g>
		<g>
			<path style="fill:#FFFFFF;" d="M190.604,178.95l-6.724,6.724c-6.069-6.069-15.944-6.069-22.013,0l-6.724-6.724
				C164.921,169.173,180.828,169.173,190.604,178.95z"/>
		</g>
		<g>
			<path style="fill:#FFFFFF;" d="M201.581,167.973l-6.724,6.724c-12.121-12.121-31.845-12.121-43.966,0l-6.724-6.724
				C159.997,152.144,185.752,152.144,201.581,167.973z"/>
		</g>
		<path style="fill:#FFFFFF;" d="M166.317,190.123l6.557,6.557l6.557-6.557C175.81,186.501,169.938,186.501,166.317,190.123z"/>
	</g>
	<g>
		<g>
			<path style="fill:#FFFFFF;" d="M366.928,123.942l-6.724,6.724c-6.069-6.069-15.944-6.069-22.013,0l-6.724-6.724
				C341.245,114.165,357.152,114.165,366.928,123.942z"/>
		</g>
		<g>
			<path style="fill:#FFFFFF;" d="M377.905,112.965l-6.724,6.724c-12.121-12.122-31.844-12.122-43.966,0l-6.724-6.724
				C336.321,97.136,362.076,97.136,377.905,112.965z"/>
		</g>
		<path style="fill:#FFFFFF;" d="M342.641,135.115l6.557,6.557l6.557-6.557C352.134,131.493,346.262,131.493,342.641,135.115z"/>
	</g>
	<text transform="matrix(1 0 0 1 188.8627 48.7692)" style="fill:#FFFFFF; font-family:'Milkshake'; font-size:28px;">Smart City</text>
	<g>
		<g>
			<g style="enable-background:new    ;">
				<path style="fill:#A7A9AC;" d="M420.507,295.805L213.996,415.816l-0.043,15.114l206.511-120.011
					c2.78-1.616,4.172-3.73,4.178-5.849l0.043-15.114C424.679,292.075,423.287,294.19,420.507,295.805z"/>
				<path style="fill:#D1D3D4;" d="M79.602,349.977c-2.835-1.636-4.251-3.785-4.244-5.931l-0.043,15.114
					c-0.006,2.146,1.41,4.294,4.245,5.931l114.036,65.839l0.043-15.114L79.602,349.977z"/>
				<g>
					<path style="fill:#BCBEC0;" d="M213.996,415.816l-0.043,15.114c-5.606,3.258-14.715,3.258-20.358,0l0.043-15.114
						C199.281,419.074,208.39,419.074,213.996,415.816z"/>
				</g>
				<g>
					<path style="fill:#263C40;" d="M420.433,284.018c5.643,3.258,5.672,8.534,0.074,11.787L213.996,415.816
						c-5.606,3.258-14.715,3.258-20.357,0L79.602,349.977c-5.635-3.253-5.664-8.529-0.059-11.787l206.511-120.011
						c5.598-3.253,14.707-3.253,20.342,0L420.433,284.018z"/>
				</g>
			</g>
		</g>
		<g>
			<g style="enable-background:new    ;">
				<g>
					<path style="fill:#808285;" d="M406.094,278.983c2.754,1.59,2.761,4.164,0.033,5.75c-2.736,1.59-7.173,1.59-9.927,0
						c-2.746-1.586-2.769-4.16-0.032-5.75C398.895,277.398,403.348,277.398,406.094,278.983z"/>
				</g>
				<g>
					<polygon style="fill:#54868F;" points="407.907,294.944 212.443,408.535 92.094,339.051 287.557,225.46 					"/>
				</g>
			</g>
			<g>
				<path style="fill:#808285;" d="M159.341,386.496c3.125,1.804,3.142,4.729,0.037,6.534l-2.603,1.513l-40.335-23.287l2.603-1.513
					c3.105-1.804,8.155-1.804,11.28,0L159.341,386.496z"/>
			</g>
			<g>
				<path style="fill:#1A292B;" d="M373.182,262.18c1.689,0.975,1.698,2.561,0.012,3.54c-1.686,0.98-4.423,0.98-6.112,0.005
					l-28.939-16.708c-1.697-0.98-1.706-2.565-0.02-3.545c1.686-0.98,4.423-0.98,6.12,0L373.182,262.18z"/>
			</g>
			<g>
				<path style="fill:#FFFFFF;" d="M420.415,284.018c5.643,3.258,5.672,8.534,0.074,11.787L213.979,415.816
					c-5.606,3.258-14.715,3.258-20.358,0l-36.847-21.273l2.603-1.513c3.105-1.804,3.089-4.729-0.037-6.534l-29.018-16.754
					c-3.125-1.804-8.175-1.804-11.28,0l-2.603,1.513l-36.854-21.278c-5.635-3.253-5.665-8.529-0.058-11.787l206.511-120.011
					c5.598-3.253,14.707-3.253,20.342,0L420.415,284.018z M212.443,408.535l195.464-113.591l-120.35-69.484L92.093,339.051
					L212.443,408.535 M344.243,245.471c-1.697-0.979-4.434-0.98-6.12,0c-1.686,0.98-1.677,2.565,0.02,3.545l28.939,16.708
					c1.689,0.975,4.426,0.975,6.112-0.005c1.686-0.98,1.677-2.565-0.012-3.54L344.243,245.471 M406.094,278.983
					c-2.746-1.586-7.198-1.586-9.927,0c-2.736,1.59-2.714,4.164,0.032,5.75c2.754,1.59,7.191,1.59,9.927,0
					C408.855,283.148,408.848,280.573,406.094,278.983 M314.635,228.777c-1.507-0.87-3.938-0.875-5.436-0.005
					c-1.498,0.87-1.482,2.278,0.026,3.148c1.499,0.866,3.93,0.87,5.428,0C316.15,231.051,316.135,229.643,314.635,228.777"/>
			</g>
			<g>
				<path style="fill:#1A292B;" d="M314.635,228.777c1.499,0.866,1.515,2.274,0.018,3.144c-1.498,0.87-3.928,0.866-5.428,0
					c-1.507-0.87-1.523-2.278-0.026-3.148C310.697,227.902,313.128,227.907,314.635,228.777z"/>
			</g>
		</g>
		<g>
			<path style="fill:#808285;" d="M368.551,330.067c1.804-1.041,3.273-0.208,3.279,1.865c0.006,2.073-1.454,4.601-3.258,5.643
				c-1.8,1.039-3.27,0.202-3.276-1.871C365.291,333.631,366.75,331.107,368.551,330.067z"/>
		</g>
		<g>
			<path style="fill:#808285;" d="M349.186,340.78c1.804-1.041,3.273-0.208,3.279,1.865c0.006,2.073-1.454,4.601-3.258,5.643
				c-1.8,1.039-3.27,0.202-3.276-1.871C345.926,344.344,347.386,341.819,349.186,340.78z"/>
		</g>
	</g>
	<g>
		<g>
			<g style="enable-background:new    ;">
				<g>
					<polygon style="fill:#007185;" points="325.635,135.776 325.29,257.694 284.347,281.487 284.692,159.569 					"/>
				</g>
				<g>
					<polygon style="fill:#004F5D;" points="284.692,159.569 284.347,281.487 243.128,257.689 243.474,135.771 					"/>
				</g>
				<g>
					<polygon style="fill:#0093AD;" points="325.635,135.776 284.692,159.569 243.474,135.771 284.417,111.978 					"/>
				</g>
			</g>
		</g>
		<g>
			<g style="enable-background:new    ;">
				<g>
					<polygon style="fill:#007185;" points="310.691,124.367 310.66,135.171 284.762,150.221 284.792,139.417 					"/>
				</g>
				<g>
					<polygon style="fill:#004F5D;" points="284.792,139.417 284.762,150.221 258.694,135.171 258.725,124.367 					"/>
				</g>
				<g>
					<polygon style="fill:#00ADCC;" points="310.691,124.367 284.792,139.417 258.725,124.367 284.623,109.316 					"/>
				</g>
			</g>
		</g>
		<g>
			<g>
				<polygon style="fill:#005766;" points="293.461,194.137 293.478,200.014 288.356,202.971 288.339,197.095 				"/>
			</g>
			<g>
				<polygon style="fill:#005766;" points="293.438,185.904 293.454,191.78 288.333,194.737 288.316,188.861 				"/>
			</g>
			<g>
				<polygon style="fill:#005766;" points="293.414,177.661 293.431,183.537 288.309,186.494 288.293,180.618 				"/>
			</g>
			<g>
				<polygon style="fill:#005766;" points="293.391,169.426 293.408,175.303 288.286,178.26 288.269,172.384 				"/>
			</g>
			<g>
				<polygon style="fill:#005766;" points="300.658,206.486 300.674,212.363 295.56,215.315 295.544,209.439 				"/>
			</g>
			<g>
				<polygon style="fill:#005766;" points="300.634,198.253 300.651,204.129 295.537,207.081 295.52,201.205 				"/>
			</g>
			<g>
				<polygon style="fill:#005766;" points="300.611,190.01 300.628,195.886 295.514,198.838 295.497,192.962 				"/>
			</g>
			<g>
				<polygon style="fill:#005766;" points="300.588,181.775 300.604,187.652 295.49,190.604 295.474,184.728 				"/>
			</g>
			<g>
				<polygon style="fill:#005766;" points="300.564,173.533 300.581,179.409 295.467,182.361 295.45,176.485 				"/>
			</g>
			<g>
				<polygon style="fill:#005766;" points="300.541,165.298 300.558,171.175 295.444,174.127 295.427,168.251 				"/>
			</g>
			<g style="enable-background:new    ;">
				<g>
					<polygon style="fill:#005766;" points="307.722,169.4 307.739,175.276 302.625,178.229 302.608,172.352 					"/>
				</g>
				<g>
					<polygon style="fill:#005766;" points="307.699,161.166 307.715,167.042 302.602,169.995 302.585,164.118 					"/>
				</g>
			</g>
			<g>
				<polygon style="fill:#005766;" points="314.849,157.038 314.865,162.914 309.751,165.867 309.735,159.99 				"/>
			</g>
			<g>
				<polygon style="fill:#005766;" points="322.007,152.905 322.023,158.781 316.909,161.734 316.893,155.858 				"/>
			</g>
			<g>
				<polygon style="fill:#005766;" points="314.919,181.749 314.935,187.625 309.822,190.578 309.805,184.701 				"/>
			</g>
			<g>
				<polygon style="fill:#005766;" points="314.895,173.515 314.912,179.391 309.798,182.344 309.782,176.467 				"/>
			</g>
			<g>
				<polygon style="fill:#005766;" points="314.872,165.272 314.889,171.148 309.775,174.101 309.758,168.224 				"/>
			</g>
			<g>
				<polygon style="fill:#005766;" points="322.1,185.859 322.117,191.736 317.003,194.688 316.986,188.812 				"/>
			</g>
			<g>
				<polygon style="fill:#005766;" points="322.077,177.616 322.093,183.493 316.979,186.445 316.963,180.569 				"/>
			</g>
			<g>
				<polygon style="fill:#005766;" points="322.053,169.382 322.07,175.259 316.956,178.211 316.939,172.335 				"/>
			</g>
			<g>
				<polygon style="fill:#005766;" points="322.03,161.139 322.047,167.016 316.933,169.968 316.916,164.092 				"/>
			</g>
			<g>
				<polygon style="fill:#005766;" points="307.792,194.12 307.809,199.996 302.695,202.949 302.678,197.072 				"/>
			</g>
			<g>
				<polygon style="fill:#005766;" points="307.769,185.877 307.785,191.753 302.672,194.706 302.655,188.829 				"/>
			</g>
			<g>
				<polygon style="fill:#005766;" points="307.745,177.643 307.762,183.519 302.648,186.472 302.632,180.595 				"/>
			</g>
			<g>
				<polygon style="fill:#005766;" points="293.531,218.858 293.548,224.734 288.426,227.691 288.409,221.815 				"/>
			</g>
			<g>
				<polygon style="fill:#005766;" points="293.508,210.615 293.524,216.491 288.403,219.448 288.386,213.572 				"/>
			</g>
			<g>
				<polygon style="fill:#005766;" points="293.484,202.381 293.501,208.257 288.379,211.214 288.363,205.338 				"/>
			</g>
			<g>
				<polygon style="fill:#005766;" points="314.965,198.226 314.982,204.102 309.868,207.055 309.852,201.178 				"/>
			</g>
			<g>
				<polygon style="fill:#005766;" points="314.942,189.992 314.959,195.868 309.845,198.821 309.828,192.945 				"/>
			</g>
			<g>
				<polygon style="fill:#005766;" points="307.816,202.354 307.832,208.23 302.718,211.183 302.702,205.307 				"/>
			</g>
			<g>
				<polygon style="fill:#005766;" points="322.147,202.336 322.163,208.213 317.049,211.165 317.033,205.289 				"/>
			</g>
			<g>
				<polygon style="fill:#005766;" points="322.123,194.093 322.14,199.97 317.026,202.922 317.009,197.046 				"/>
			</g>
			<g>
				<polygon style="fill:#005766;" points="300.681,214.73 300.698,220.606 295.584,223.558 295.567,217.682 				"/>
			</g>
			<g>
				<polygon style="fill:#005766;" points="307.909,235.308 307.926,241.184 302.812,244.137 302.795,238.26 				"/>
			</g>
			<g>
				<polygon style="fill:#005766;" points="307.886,227.074 307.902,232.95 302.788,235.903 302.772,230.027 				"/>
			</g>
			<g>
				<polygon style="fill:#005766;" points="307.862,218.831 307.879,224.707 302.765,227.66 302.748,221.783 				"/>
			</g>
			<g>
				<polygon style="fill:#005766;" points="307.839,210.597 307.856,216.473 302.742,219.426 302.725,213.549 				"/>
			</g>
			<g>
				<polygon style="fill:#005766;" points="314.989,206.469 315.005,212.345 309.892,215.298 309.875,209.421 				"/>
			</g>
			<g>
				<polygon style="fill:#005766;" points="293.601,243.569 293.618,249.445 288.496,252.402 288.479,246.526 				"/>
			</g>
			<g>
				<polygon style="fill:#005766;" points="293.578,235.335 293.594,241.211 288.473,244.168 288.456,238.292 				"/>
			</g>
			<g>
				<polygon style="fill:#005766;" points="293.554,227.092 293.571,232.968 288.449,235.925 288.433,230.049 				"/>
			</g>
			<g>
				<polygon style="fill:#005766;" points="300.728,231.207 300.744,237.083 295.631,240.035 295.614,234.159 				"/>
			</g>
			<g>
				<polygon style="fill:#005766;" points="300.704,222.964 300.721,228.84 295.607,231.792 295.591,225.916 				"/>
			</g>
			<g>
				<polygon style="fill:#005766;" points="315.012,214.703 315.029,220.579 309.915,223.532 309.898,217.656 				"/>
			</g>
			<g>
				<polygon style="fill:#005766;" points="322.193,218.813 322.21,224.69 317.096,227.642 317.08,221.766 				"/>
			</g>
			<g>
				<polygon style="fill:#005766;" points="322.17,210.57 322.187,216.447 317.073,219.399 317.056,213.523 				"/>
			</g>
			<g>
				<polygon style="fill:#005766;" points="315.059,231.18 315.076,237.056 309.962,240.009 309.945,234.133 				"/>
			</g>
			<g>
				<polygon style="fill:#005766;" points="315.036,222.946 315.052,228.822 309.938,231.775 309.922,225.898 				"/>
			</g>
			<g>
				<polygon style="fill:#005766;" points="300.751,239.441 300.768,245.317 295.654,248.269 295.637,242.393 				"/>
			</g>
			<g>
				<polygon style="fill:#005766;" points="322.217,227.047 322.233,232.924 317.12,235.876 317.103,230 				"/>
			</g>
		</g>
		<g>
			<g>
				<polygon style="fill:#003842;" points="251.339,163.719 251.322,169.595 246.208,166.643 246.225,160.767 				"/>
			</g>
			<g>
				<polygon style="fill:#003842;" points="251.362,155.485 251.345,161.361 246.231,158.409 246.248,152.533 				"/>
			</g>
			<g>
				<polygon style="fill:#003842;" points="258.512,159.613 258.495,165.489 253.381,162.537 253.398,156.661 				"/>
			</g>
			<g>
				<polygon style="fill:#003842;" points="265.576,196.7 265.56,202.576 260.446,199.624 260.462,193.747 				"/>
			</g>
			<g>
				<polygon style="fill:#003842;" points="265.6,188.457 265.583,194.333 260.469,191.38 260.486,185.504 				"/>
			</g>
			<g>
				<polygon style="fill:#003842;" points="265.623,180.223 265.606,186.099 260.493,183.146 260.509,177.27 				"/>
			</g>
			<g>
				<polygon style="fill:#003842;" points="265.646,171.98 265.63,177.856 260.516,174.904 260.533,169.027 				"/>
			</g>
			<g>
				<polygon style="fill:#003842;" points="265.67,163.746 265.653,169.622 260.539,166.669 260.556,160.793 				"/>
			</g>
			<g>
				<polygon style="fill:#003842;" points="272.758,192.589 272.741,198.466 267.619,195.509 267.636,189.632 				"/>
			</g>
			<g>
				<polygon style="fill:#003842;" points="272.781,184.355 272.764,190.232 267.642,187.275 267.659,181.398 				"/>
			</g>
			<g>
				<polygon style="fill:#003842;" points="272.804,176.112 272.788,181.989 267.666,179.031 267.683,173.155 				"/>
			</g>
			<g>
				<polygon style="fill:#003842;" points="272.828,167.878 272.811,173.755 267.689,170.798 267.706,164.921 				"/>
			</g>
			<g>
				<polygon style="fill:#003842;" points="279.954,180.24 279.938,186.117 274.824,183.164 274.84,177.288 				"/>
			</g>
			<g>
				<polygon style="fill:#003842;" points="279.978,172.006 279.961,177.883 274.847,174.93 274.864,169.054 				"/>
			</g>
			<g>
				<polygon style="fill:#003842;" points="258.489,167.847 258.472,173.723 253.358,170.771 253.375,164.895 				"/>
			</g>
			<g>
				<polygon style="fill:#003842;" points="251.315,171.962 251.299,177.838 246.185,174.886 246.201,169.01 				"/>
			</g>
			<g>
				<polygon style="fill:#003842;" points="258.465,176.09 258.449,181.967 253.335,179.014 253.351,173.138 				"/>
			</g>
			<g>
				<polygon style="fill:#003842;" points="279.908,196.717 279.891,202.594 274.777,199.641 274.794,193.765 				"/>
			</g>
			<g>
				<polygon style="fill:#003842;" points="279.931,188.483 279.914,194.36 274.8,191.407 274.817,185.531 				"/>
			</g>
			<g>
				<polygon style="fill:#003842;" points="251.152,229.627 251.135,235.503 246.021,232.551 246.038,226.675 				"/>
			</g>
			<g style="enable-background:new    ;">
				<g>
					<polygon style="fill:#003842;" points="251.175,221.393 251.158,227.27 246.045,224.317 246.061,218.441 					"/>
				</g>
				<g>
					<polygon style="fill:#003842;" points="251.199,213.15 251.182,219.027 246.068,216.074 246.085,210.198 					"/>
				</g>
			</g>
			<g>
				<polygon style="fill:#003842;" points="251.222,204.916 251.205,210.792 246.091,207.84 246.108,201.964 				"/>
			</g>
			<g>
				<polygon style="fill:#003842;" points="251.245,196.673 251.229,202.549 246.115,199.597 246.131,193.721 				"/>
			</g>
			<g>
				<polygon style="fill:#003842;" points="251.269,188.439 251.252,194.316 246.138,191.363 246.155,185.487 				"/>
			</g>
			<g>
				<polygon style="fill:#003842;" points="251.292,180.196 251.275,186.072 246.161,183.12 246.178,177.244 				"/>
			</g>
			<g>
				<polygon style="fill:#003842;" points="258.442,184.324 258.425,190.2 253.311,187.248 253.328,181.372 				"/>
			</g>
			<g>
				<polygon style="fill:#003842;" points="258.419,192.567 258.402,198.443 253.288,195.491 253.305,189.615 				"/>
			</g>
			<g>
				<polygon style="fill:#003842;" points="272.734,200.832 272.718,206.709 267.596,203.752 267.612,197.875 				"/>
			</g>
			<g>
				<polygon style="fill:#003842;" points="279.861,213.194 279.844,219.071 274.73,216.118 274.747,210.242 				"/>
			</g>
			<g>
				<polygon style="fill:#003842;" points="279.884,204.96 279.868,210.837 274.754,207.884 274.77,202.008 				"/>
			</g>
			<g>
				<polygon style="fill:#003842;" points="258.325,225.521 258.309,231.398 253.195,228.445 253.211,222.569 				"/>
			</g>
			<g>
				<polygon style="fill:#003842;" points="258.348,217.278 258.332,223.154 253.218,220.202 253.235,214.326 				"/>
			</g>
			<g>
				<polygon style="fill:#003842;" points="258.372,209.044 258.355,214.921 253.241,211.968 253.258,206.092 				"/>
			</g>
			<g>
				<polygon style="fill:#003842;" points="258.395,200.801 258.379,206.678 253.265,203.725 253.281,197.849 				"/>
			</g>
			<g>
				<polygon style="fill:#003842;" points="265.506,221.411 265.49,227.287 260.376,224.335 260.392,218.458 				"/>
			</g>
			<g>
				<polygon style="fill:#003842;" points="265.53,213.177 265.513,219.053 260.399,216.101 260.416,210.224 				"/>
			</g>
			<g>
				<polygon style="fill:#003842;" points="265.553,204.934 265.536,210.81 260.422,207.858 260.439,201.981 				"/>
			</g>
			<g>
				<polygon style="fill:#003842;" points="272.641,233.786 272.624,239.663 267.502,236.706 267.519,230.829 				"/>
			</g>
			<g>
				<polygon style="fill:#003842;" points="272.664,225.543 272.647,231.42 267.526,228.463 267.542,222.586 				"/>
			</g>
			<g>
				<polygon style="fill:#003842;" points="272.688,217.309 272.671,223.186 267.549,220.229 267.566,214.352 				"/>
			</g>
			<g>
				<polygon style="fill:#003842;" points="272.711,209.066 272.694,214.943 267.572,211.986 267.589,206.109 				"/>
			</g>
			<g>
				<polygon style="fill:#003842;" points="279.767,246.148 279.751,252.025 274.637,249.072 274.654,243.196 				"/>
			</g>
			<g>
				<polygon style="fill:#003842;" points="279.791,237.915 279.774,243.791 274.66,240.838 274.677,234.962 				"/>
			</g>
			<g>
				<polygon style="fill:#003842;" points="279.814,229.671 279.797,235.548 274.684,232.595 274.7,226.719 				"/>
			</g>
			<g>
				<polygon style="fill:#003842;" points="279.837,221.438 279.821,227.314 274.707,224.361 274.724,218.485 				"/>
			</g>
			<g>
				<polygon style="fill:#003842;" points="265.46,237.888 265.443,243.764 260.329,240.812 260.346,234.935 				"/>
			</g>
			<g>
				<polygon style="fill:#003842;" points="265.483,229.654 265.466,235.53 260.352,232.578 260.369,226.701 				"/>
			</g>
			<g>
				<polygon style="fill:#003842;" points="258.302,233.755 258.285,239.632 253.171,236.679 253.188,230.803 				"/>
			</g>
			<g>
				<polygon style="fill:#003842;" points="272.617,242.02 272.601,247.897 267.479,244.94 267.496,239.063 				"/>
			</g>
		</g>
	</g>
	<g>
		<g style="enable-background:new    ;">
			<g>
				<polygon style="fill:#00A085;" points="259.85,233.394 259.708,283.773 200.182,318.365 200.325,267.986 				"/>
			</g>
			<g>
				<polygon style="fill:#006F5C;" points="200.325,267.986 200.182,318.365 178.259,305.707 178.402,255.328 				"/>
			</g>
			<g>
				<polygon style="fill:#00CFAC;" points="259.85,233.394 200.325,267.986 178.402,255.328 237.927,220.736 				"/>
			</g>
		</g>
		<g>
			<g>
				<polygon style="fill:#008A72;" points="210.981,269.293 211.008,278.591 207.261,280.754 207.235,271.456 				"/>
			</g>
			<g>
				<polygon style="fill:#008A72;" points="217.656,265.44 217.682,274.737 213.929,276.905 213.902,267.607 				"/>
			</g>
			<g>
				<polygon style="fill:#008A72;" points="224.323,261.59 224.35,270.888 220.596,273.055 220.57,263.758 				"/>
			</g>
			<g>
				<polygon style="fill:#008A72;" points="230.991,257.741 231.017,267.039 227.264,269.206 227.237,259.908 				"/>
			</g>
		</g>
		<g>
			<g>
				<polygon style="fill:#008A72;" points="210.981,282.725 211.008,292.022 207.261,294.185 207.235,284.888 				"/>
			</g>
			<g>
				<polygon style="fill:#008A72;" points="217.656,278.871 217.682,288.169 213.929,290.336 213.902,281.038 				"/>
			</g>
			<g>
				<polygon style="fill:#008A72;" points="224.323,275.022 224.35,284.319 220.596,286.487 220.57,277.189 				"/>
			</g>
			<g>
				<polygon style="fill:#008A72;" points="230.991,271.172 231.017,280.47 227.264,282.637 227.237,273.339 				"/>
			</g>
		</g>
		<g>
			<g>
				<polygon style="fill:#008A72;" points="210.981,296.156 211.008,305.454 207.261,307.617 207.235,298.319 				"/>
			</g>
			<g>
				<polygon style="fill:#008A72;" points="217.656,292.302 217.682,301.6 213.929,303.767 213.902,294.47 				"/>
			</g>
			<g>
				<polygon style="fill:#008A72;" points="224.323,288.453 224.35,297.751 220.596,299.918 220.57,290.62 				"/>
			</g>
			<g>
				<polygon style="fill:#008A72;" points="230.991,284.603 231.017,293.901 227.264,296.068 227.237,286.771 				"/>
			</g>
		</g>
		<g>
			<g style="enable-background:new    ;">
				<g>
					<path style="fill:#00A085;" d="M194.28,229.508l-0.074,26.119c0,0.143-0.094,0.285-0.282,0.394
						c-0.374,0.217-0.986,0.217-1.366-0.002c-0.189-0.109-0.284-0.253-0.284-0.397l0.074-26.119c0,0.144,0.094,0.288,0.284,0.397
						c0.38,0.22,0.992,0.22,1.366,0.002C194.185,229.793,194.279,229.651,194.28,229.508z"/>
				</g>
				<g>
					<path style="fill:#00CFAC;" d="M193.993,229.109c0.38,0.22,0.382,0.574,0.004,0.794c-0.374,0.217-0.986,0.217-1.366-0.002
						c-0.376-0.217-0.378-0.572-0.004-0.789C193.005,228.891,193.617,228.891,193.993,229.109z"/>
				</g>
			</g>
		</g>
		<g>
			<g style="enable-background:new    ;">
				<g>
					<path style="fill:#00A085;" d="M199.687,226.727l-0.074,26.119c0,0.143-0.094,0.285-0.282,0.394
						c-0.374,0.217-0.986,0.217-1.366-0.002c-0.189-0.109-0.284-0.253-0.284-0.397l0.074-26.119c0,0.144,0.094,0.288,0.284,0.397
						c0.38,0.22,0.992,0.22,1.366,0.002C199.593,227.012,199.687,226.87,199.687,226.727z"/>
				</g>
				<g>
					<path style="fill:#00CFAC;" d="M199.401,226.327c0.38,0.22,0.382,0.574,0.005,0.794c-0.374,0.217-0.986,0.217-1.366-0.002
						c-0.377-0.217-0.378-0.572-0.005-0.789C198.413,226.11,199.024,226.11,199.401,226.327z"/>
				</g>
			</g>
		</g>
	</g>
	<g>
		<g style="enable-background:new    ;">
			<g>
				<polygon style="fill:#C2896D;" points="183.717,262.488 183.517,333.019 143.005,356.562 143.205,286.031 				"/>
			</g>
			<g>
				<polygon style="fill:#875F4C;" points="143.205,286.028 143.193,290.639 143.18,293.779 143.168,297.264 143.168,300.416 
					143.155,303.914 143.143,307.054 143.131,310.552 143.131,313.704 143.118,317.202 143.106,320.341 143.094,323.839 
					143.094,326.991 143.081,330.489 143.069,333.629 143.057,337.127 143.057,340.279 143.044,343.764 143.032,346.917 
					143.019,350.414 143.019,353.554 143.007,356.558 115.604,340.749 115.616,337.733 115.616,334.593 115.628,331.095 
					115.641,327.943 115.653,324.457 115.653,321.306 115.666,317.807 115.678,314.668 115.69,311.17 115.69,308.018 
					115.703,304.52 115.715,301.38 115.727,297.882 115.727,294.73 115.74,291.232 115.752,288.093 115.764,284.595 
					115.764,281.443 115.777,277.957 115.789,274.818 115.802,270.207 				"/>
			</g>
			<g>
				<polygon style="fill:#FCB28D;" points="183.717,262.488 143.205,286.031 115.805,270.212 156.316,246.669 				"/>
			</g>
		</g>
		<g>
			<g style="enable-background:new    ;">
				<g>
					<polygon style="fill:#593F32;" points="143.019,350.414 143.019,353.554 115.616,337.733 115.616,334.593 					"/>
				</g>
				<g>
					<polygon style="fill:#593F32;" points="143.044,343.764 143.032,346.917 115.628,331.095 115.641,327.943 					"/>
				</g>
				<g>
					<polygon style="fill:#593F32;" points="143.057,337.127 143.057,340.279 115.653,324.457 115.653,321.306 					"/>
				</g>
				<g>
					<polygon style="fill:#593F32;" points="143.081,330.489 143.069,333.629 115.666,317.807 115.678,314.668 					"/>
				</g>
				<g>
					<polygon style="fill:#593F32;" points="143.094,323.839 143.094,326.991 115.69,311.17 115.69,308.018 					"/>
				</g>
				<g>
					<polygon style="fill:#593F32;" points="143.118,317.202 143.106,320.341 115.703,304.52 115.715,301.38 					"/>
				</g>
				<g>
					<polygon style="fill:#593F32;" points="143.131,310.552 143.131,313.704 115.727,297.882 115.727,294.73 					"/>
				</g>
				<g>
					<polygon style="fill:#593F32;" points="143.155,303.914 143.143,307.054 115.74,291.232 115.752,288.093 					"/>
				</g>
				<g>
					<polygon style="fill:#593F32;" points="143.168,297.264 143.168,300.416 115.764,284.595 115.764,281.443 					"/>
				</g>
				<g>
					<polygon style="fill:#593F32;" points="143.193,290.639 143.18,293.779 115.777,277.957 115.789,274.818 					"/>
				</g>
			</g>
		</g>
		<g>
			<g>
				<polygon style="fill:#946853;" points="155.307,285.147 155.336,295.195 151.287,297.532 151.259,287.485 				"/>
			</g>
			<g>
				<polygon style="fill:#946853;" points="162.52,280.983 162.549,291.03 158.492,293.372 158.464,283.325 				"/>
			</g>
			<g>
				<polygon style="fill:#946853;" points="169.725,276.823 169.754,286.87 165.698,289.212 165.669,279.165 				"/>
			</g>
			<g>
				<polygon style="fill:#946853;" points="176.931,272.663 176.959,282.711 172.903,285.052 172.874,275.005 				"/>
			</g>
		</g>
		<g>
			<g>
				<polygon style="fill:#946853;" points="155.307,301.205 155.336,311.253 151.287,313.59 151.259,303.542 				"/>
			</g>
			<g>
				<polygon style="fill:#946853;" points="162.52,297.04 162.549,307.088 158.492,309.43 158.464,299.382 				"/>
			</g>
			<g>
				<polygon style="fill:#946853;" points="169.725,292.88 169.754,302.928 165.698,305.27 165.669,295.222 				"/>
			</g>
			<g>
				<polygon style="fill:#946853;" points="176.931,288.721 176.959,298.768 172.903,301.11 172.874,291.063 				"/>
			</g>
		</g>
		<g>
			<g>
				<polygon style="fill:#946853;" points="155.307,317.263 155.336,327.31 151.287,329.648 151.259,319.6 				"/>
			</g>
			<g>
				<polygon style="fill:#946853;" points="162.52,313.098 162.549,323.146 158.492,325.488 158.464,315.44 				"/>
			</g>
			<g>
				<polygon style="fill:#946853;" points="169.725,308.938 169.754,318.986 165.698,321.328 165.669,311.28 				"/>
			</g>
			<g>
				<polygon style="fill:#946853;" points="176.931,304.778 176.959,314.826 172.903,317.168 172.874,307.12 				"/>
			</g>
		</g>
		<g>
			<g>
				<polygon style="fill:#946853;" points="155.307,333.32 155.336,343.368 151.287,345.705 151.259,335.658 				"/>
			</g>
			<g>
				<polygon style="fill:#946853;" points="162.52,329.156 162.549,339.203 158.492,341.545 158.464,331.498 				"/>
			</g>
			<g>
				<polygon style="fill:#946853;" points="169.725,324.996 169.754,335.044 165.698,337.385 165.669,327.338 				"/>
			</g>
			<g>
				<polygon style="fill:#946853;" points="176.931,320.836 176.959,330.884 172.903,333.226 172.874,323.178 				"/>
			</g>
		</g>
		<g>
			<g style="enable-background:new    ;">
				<g>
					<polygon style="fill:#C2896D;" points="161.817,254.923 161.771,270.918 143.253,281.68 143.299,265.684 					"/>
				</g>
				<g>
					<polygon style="fill:#875F4C;" points="143.299,265.684 143.253,281.68 123.118,270.054 123.163,254.059 					"/>
				</g>
				<g>
					<polygon style="fill:#FCB28D;" points="161.817,254.923 143.299,265.684 123.163,254.059 141.681,243.297 					"/>
				</g>
			</g>
		</g>
	</g>
	<g>
		<g style="enable-background:new    ;">
			<g>
				<polygon style="fill:#00A085;" points="390.951,177.944 390.605,299.862 371.443,310.998 371.788,189.08 				"/>
			</g>
			<g>
				<polygon style="fill:#006F5C;" points="371.788,189.085 371.442,310.997 368.983,309.575 366.313,308.043 363.359,306.337 
					360.701,304.804 357.734,303.086 355.077,301.553 352.123,299.848 349.453,298.302 346.499,296.597 343.841,295.064 
					340.875,293.358 338.217,291.826 335.251,290.108 332.593,288.575 330.22,287.203 330.566,165.278 332.952,166.65 
					335.609,168.183 338.576,169.901 341.233,171.434 344.187,173.14 346.857,174.685 349.811,176.391 352.469,177.923 
					355.435,179.641 358.093,181.174 361.047,182.88 363.717,184.425 366.671,186.131 369.329,187.663 				"/>
			</g>
			<g>
				<polygon style="fill:#00CFAC;" points="390.951,177.944 371.788,189.08 330.57,165.282 349.732,154.146 				"/>
			</g>
		</g>
		<g>
			<g>
				<polygon style="fill:#004A3D;" points="335.609,168.183 335.251,290.108 332.593,288.575 332.952,166.65 				"/>
			</g>
			<g>
				<polygon style="fill:#004A3D;" points="341.233,171.434 340.875,293.358 338.217,291.826 338.576,169.901 				"/>
			</g>
			<g>
				<polygon style="fill:#004A3D;" points="346.857,174.685 346.499,296.597 343.841,295.064 344.187,173.14 				"/>
			</g>
			<g>
				<polygon style="fill:#004A3D;" points="352.469,177.923 352.123,299.848 349.453,298.302 349.811,176.391 				"/>
			</g>
			<g>
				<polygon style="fill:#004A3D;" points="358.093,181.174 357.734,303.086 355.077,301.553 355.435,179.641 				"/>
			</g>
			<g>
				<polygon style="fill:#004A3D;" points="363.717,184.425 363.359,306.337 360.701,304.804 361.047,182.88 				"/>
			</g>
			<g>
				<polygon style="fill:#004A3D;" points="369.329,187.663 368.983,309.575 366.313,308.043 366.671,186.131 				"/>
			</g>
		</g>
		<g>
			<polygon style="fill:#006F5C;" points="388.927,182.88 388.949,190.66 374.476,199.017 374.454,191.236 			"/>
		</g>
		<g>
			<polygon style="fill:#006F5C;" points="388.927,194.21 388.949,201.991 374.476,210.347 374.454,202.567 			"/>
		</g>
		<g>
			<polygon style="fill:#006F5C;" points="388.927,205.541 388.949,213.321 374.476,221.678 374.454,213.897 			"/>
		</g>
		<g>
			<polygon style="fill:#006F5C;" points="388.927,216.871 388.949,224.652 374.476,233.008 374.454,225.227 			"/>
		</g>
		<g>
			<polygon style="fill:#006F5C;" points="388.927,228.202 388.949,235.982 374.476,244.339 374.454,236.558 			"/>
		</g>
		<g>
			<polygon style="fill:#006F5C;" points="388.927,239.532 388.949,247.313 374.476,255.669 374.454,247.889 			"/>
		</g>
		<g>
			<polygon style="fill:#006F5C;" points="388.927,250.863 388.949,258.643 374.476,267 374.454,259.219 			"/>
		</g>
		<g>
			<polygon style="fill:#006F5C;" points="388.927,262.193 388.949,269.974 374.476,278.33 374.454,270.549 			"/>
		</g>
		<g>
			<polygon style="fill:#006F5C;" points="388.927,273.524 388.949,281.304 374.476,289.661 374.454,281.88 			"/>
		</g>
		<g>
			<polygon style="fill:#006F5C;" points="388.927,284.854 388.949,292.635 374.476,300.991 374.454,293.211 			"/>
		</g>
	</g>
	<g>
		<g>
			<g style="enable-background:new    ;">
				<g>
					<polygon style="fill:#C2896D;" points="266.328,196.649 266.316,200.32 266.304,204.004 266.291,208.071 266.291,211.742 
						266.279,215.821 266.266,219.492 266.254,223.583 266.242,227.242 266.229,231.321 266.217,234.992 266.205,239.083 
						266.192,242.742 266.192,246.833 266.18,250.504 266.168,254.571 266.155,258.254 266.143,262.321 266.13,265.992 
						266.118,270.071 266.106,273.742 266.093,277.833 266.093,281.492 266.081,285.583 266.069,289.242 266.056,293.333 
						266.044,296.992 266.032,301.084 266.019,304.742 266.007,308.821 265.994,312.492 265.994,314.544 249.889,323.901 
						249.889,321.8 249.901,318.129 249.913,314.05 249.926,310.379 249.938,306.3 249.951,302.629 249.963,298.55 249.975,294.879 
						249.988,290.8 249.988,287.129 250,283.037 250.012,279.366 250.025,275.287 250.037,271.628 250.049,267.549 250.062,263.878 
						250.074,259.799 250.086,256.128 250.086,252.049 250.099,248.378 250.111,244.287 250.124,240.628 250.136,236.537 
						250.148,232.878 250.161,228.787 250.173,225.128 250.185,221.037 250.185,217.366 250.198,213.299 250.21,209.616 
						250.222,206.019 					"/>
				</g>
				<g>
					<polygon style="fill:#875F4C;" points="250.222,206.019 250.21,209.69 250.198,213.361 250.185,217.415 250.185,221.074 
						250.173,225.141 250.161,228.799 250.148,232.866 250.136,236.525 250.124,240.591 250.111,244.25 250.099,248.316 
						250.086,251.975 250.086,256.054 250.074,259.701 250.062,263.767 250.049,267.426 250.037,271.492 250.025,275.151 
						250.012,279.218 250,282.876 249.988,286.943 249.988,290.602 249.975,294.668 249.963,298.327 249.951,302.394 
						249.938,306.052 249.926,310.119 249.913,313.778 249.901,317.845 249.901,321.491 249.889,323.901 233.672,314.544 
						233.684,312.134 233.684,308.475 233.696,304.409 233.709,300.762 233.721,296.683 233.734,293.037 233.746,288.958 
						233.758,285.312 233.771,281.233 233.771,277.586 233.783,273.507 233.795,269.849 233.808,265.782 233.82,262.123 
						233.832,258.069 233.845,254.398 233.857,250.344 233.869,246.685 233.869,242.618 233.882,238.96 233.894,234.893 
						233.907,231.234 233.919,227.155 233.931,223.509 233.944,219.43 233.956,215.783 233.968,211.705 233.968,208.058 
						233.981,203.992 233.993,200.333 234.005,196.649 					"/>
				</g>
				<g>
					<polygon style="fill:#FCB28D;" points="266.332,196.652 250.22,206.016 234.002,196.652 250.114,187.289 					"/>
				</g>
			</g>
		</g>
		<g>
			<g style="enable-background:new    ;">
				<g>
					<polygon style="fill:#C2896D;" points="261.322,192.326 261.309,196.94 250.249,203.367 250.262,198.753 					"/>
				</g>
				<g>
					<polygon style="fill:#875F4C;" points="250.262,198.753 250.249,203.367 239.117,196.94 239.13,192.326 					"/>
				</g>
				<g>
					<polygon style="fill:#FCB28D;" points="261.322,192.326 250.262,198.753 239.13,192.326 250.19,185.899 					"/>
				</g>
			</g>
		</g>
		<g>
			<g style="enable-background:new    ;">
				<g>
					<polygon style="fill:#614437;" points="249.901,317.845 249.901,321.491 233.684,312.134 233.684,308.475 					"/>
				</g>
				<g>
					<polygon style="fill:#614437;" points="249.926,310.119 249.913,313.778 233.696,304.409 233.709,300.762 					"/>
				</g>
				<g>
					<polygon style="fill:#614437;" points="249.951,302.394 249.938,306.052 233.721,296.683 233.734,293.037 					"/>
				</g>
				<g>
					<polygon style="fill:#614437;" points="249.975,294.668 249.963,298.327 233.746,288.958 233.758,285.312 					"/>
				</g>
				<g>
					<polygon style="fill:#614437;" points="249.988,286.943 249.988,290.602 233.771,281.233 233.771,277.586 					"/>
				</g>
				<g>
					<polygon style="fill:#614437;" points="250.012,279.218 250,282.876 233.783,273.507 233.795,269.849 					"/>
				</g>
				<g>
					<polygon style="fill:#614437;" points="250.037,271.492 250.025,275.151 233.808,265.782 233.82,262.123 					"/>
				</g>
				<g>
					<polygon style="fill:#614437;" points="250.062,263.767 250.049,267.426 233.832,258.069 233.845,254.398 					"/>
				</g>
				<g>
					<polygon style="fill:#614437;" points="250.086,256.054 250.074,259.701 233.857,250.344 233.869,246.685 					"/>
				</g>
				<g>
					<polygon style="fill:#614437;" points="250.099,248.316 250.086,251.975 233.869,242.618 233.882,238.96 					"/>
				</g>
				<g>
					<polygon style="fill:#614437;" points="250.124,240.591 250.111,244.25 233.894,234.893 233.907,231.234 					"/>
				</g>
				<g>
					<polygon style="fill:#614437;" points="250.148,232.866 250.136,236.525 233.919,227.155 233.931,223.509 					"/>
				</g>
				<g>
					<polygon style="fill:#614437;" points="250.173,225.141 250.161,228.799 233.944,219.43 233.956,215.783 					"/>
				</g>
			</g>
			<g>
				<polygon style="fill:#614437;" points="250.185,217.415 250.185,221.074 233.968,211.705 233.968,208.058 				"/>
			</g>
			<g>
				<polygon style="fill:#614437;" points="250.21,209.69 250.198,213.361 233.981,203.992 233.993,200.333 				"/>
			</g>
		</g>
		<g>
			<g style="enable-background:new    ;">
				<g>
					<polygon style="fill:#9C6E57;" points="266.007,308.821 265.994,312.492 249.889,321.8 249.901,318.129 					"/>
				</g>
				<g>
					<polygon style="fill:#9C6E57;" points="266.032,301.084 266.019,304.742 249.913,314.05 249.926,310.379 					"/>
				</g>
				<g>
					<polygon style="fill:#9C6E57;" points="266.056,293.333 266.044,296.992 249.938,306.3 249.951,302.629 					"/>
				</g>
				<g>
					<polygon style="fill:#9C6E57;" points="266.081,285.583 266.069,289.242 249.963,298.55 249.975,294.879 					"/>
				</g>
				<g>
					<polygon style="fill:#9C6E57;" points="266.093,277.833 266.093,281.492 249.988,290.8 249.988,287.129 					"/>
				</g>
				<g>
					<polygon style="fill:#9C6E57;" points="266.118,270.071 266.106,273.742 250,283.037 250.012,279.366 					"/>
				</g>
				<g>
					<polygon style="fill:#9C6E57;" points="266.143,262.321 266.13,265.992 250.025,275.287 250.037,271.628 					"/>
				</g>
				<g>
					<polygon style="fill:#9C6E57;" points="266.168,254.571 266.155,258.254 250.049,267.549 250.062,263.878 					"/>
				</g>
				<g>
					<polygon style="fill:#9C6E57;" points="266.192,246.833 266.18,250.504 250.074,259.799 250.086,256.128 					"/>
				</g>
				<g>
					<polygon style="fill:#9C6E57;" points="266.205,239.083 266.192,242.742 250.086,252.049 250.099,248.378 					"/>
				</g>
				<g>
					<polygon style="fill:#9C6E57;" points="266.229,231.321 266.217,234.992 250.111,244.287 250.124,240.628 					"/>
				</g>
				<g>
					<polygon style="fill:#9C6E57;" points="266.254,223.583 266.242,227.242 250.136,236.537 250.148,232.878 					"/>
				</g>
				<g>
					<polygon style="fill:#9C6E57;" points="266.279,215.821 266.266,219.492 250.161,228.787 250.173,225.128 					"/>
				</g>
				<g>
					<polygon style="fill:#9C6E57;" points="266.291,208.071 266.291,211.742 250.185,221.037 250.185,217.366 					"/>
				</g>
				<g>
					<polygon style="fill:#9C6E57;" points="266.316,200.32 266.304,204.004 250.198,213.299 250.21,209.616 					"/>
				</g>
			</g>
		</g>
	</g>
	<g>
		<g>
			<g style="enable-background:new    ;">
				<g>
					<polygon style="fill:#C55237;" points="346.519,231.493 346.265,321.168 295.568,350.63 295.823,260.954 					"/>
				</g>
				<g>
					<polygon style="fill:#893926;" points="295.823,260.954 295.568,350.63 263.717,332.24 263.971,242.565 					"/>
				</g>
				<g>
					<polygon style="fill:#FF6A47;" points="346.519,231.493 295.823,260.954 263.971,242.565 314.668,213.104 					"/>
				</g>
			</g>
		</g>
		<g>
			<g style="enable-background:new    ;">
				<g>
					<polygon style="fill:#C55237;" points="323.968,211.636 323.947,219.083 323.933,222.959 319.733,225.401 316.478,227.293 
						316.507,215.97 					"/>
				</g>
				<g>
					<polygon style="fill:#893926;" points="316.507,215.97 316.5,218.879 316.478,227.293 310.796,224.01 308.968,222.959 
						308.975,219.782 309.003,211.636 313.93,214.481 					"/>
				</g>
				<g>
					<polygon style="fill:#FF6A47;" points="323.965,211.637 316.508,215.971 309.002,211.637 316.459,207.304 					"/>
				</g>
			</g>
		</g>
		<g>
			<g style="enable-background:new    ;">
				<g>
					<polygon style="fill:#C55237;" points="312.713,218.513 312.691,225.96 312.677,229.835 308.477,232.277 305.223,234.169 
						305.251,222.847 					"/>
				</g>
				<g>
					<polygon style="fill:#893926;" points="305.251,222.847 305.244,225.755 305.223,234.169 299.541,230.887 297.712,229.835 
						297.72,226.658 297.748,218.513 302.675,221.357 					"/>
				</g>
				<g>
					<polygon style="fill:#FF6A47;" points="312.709,218.514 305.252,222.847 297.746,218.514 305.203,214.18 					"/>
				</g>
			</g>
		</g>
		<g>
			<g>
				<polygon style="fill:#A6452E;" points="323.034,293.727 323.061,303.025 319.314,305.188 319.288,295.89 				"/>
			</g>
			<g>
				<polygon style="fill:#A6452E;" points="329.709,289.873 329.735,299.171 325.982,301.338 325.955,292.04 				"/>
			</g>
			<g>
				<polygon style="fill:#A6452E;" points="336.376,286.024 336.403,295.322 332.649,297.489 332.623,288.191 				"/>
			</g>
			<g>
				<polygon style="fill:#A6452E;" points="343.044,282.174 343.07,291.472 339.317,293.639 339.29,284.342 				"/>
			</g>
		</g>
		<g>
			<g>
				<polygon style="fill:#A6452E;" points="323.034,307.158 323.061,316.456 319.314,318.619 319.288,309.321 				"/>
			</g>
			<g>
				<polygon style="fill:#A6452E;" points="329.709,303.305 329.735,312.602 325.982,314.769 325.955,305.472 				"/>
			</g>
			<g>
				<polygon style="fill:#A6452E;" points="336.376,299.455 336.403,308.753 332.649,310.92 332.623,301.622 				"/>
			</g>
			<g>
				<polygon style="fill:#A6452E;" points="343.044,295.606 343.07,304.903 339.317,307.071 339.29,297.773 				"/>
			</g>
		</g>
		<g>
			<g>
				<polygon style="fill:#A6452E;" points="323.034,320.59 323.061,329.887 319.314,332.05 319.288,322.752 				"/>
			</g>
			<g>
				<polygon style="fill:#A6452E;" points="329.709,316.736 329.735,326.034 325.982,328.201 325.955,318.903 				"/>
			</g>
			<g>
				<polygon style="fill:#A6452E;" points="336.376,312.886 336.403,322.184 332.649,324.351 332.623,315.054 				"/>
			</g>
			<g>
				<polygon style="fill:#A6452E;" points="343.044,309.037 343.07,318.335 339.317,320.502 339.29,311.204 				"/>
			</g>
		</g>
		<g>
			<g>
				<polygon style="fill:#A6452E;" points="303.025,265.916 303.051,275.214 299.305,277.376 299.279,268.079 				"/>
			</g>
			<g>
				<polygon style="fill:#A6452E;" points="309.699,262.062 309.726,271.36 305.972,273.527 305.946,264.229 				"/>
			</g>
			<g>
				<polygon style="fill:#A6452E;" points="316.367,258.213 316.393,267.51 312.64,269.677 312.613,260.38 				"/>
			</g>
			<g>
				<polygon style="fill:#A6452E;" points="323.034,254.363 323.061,263.661 319.307,265.828 319.281,256.53 				"/>
			</g>
		</g>
		<g>
			<g>
				<polygon style="fill:#A6452E;" points="303.025,279.347 303.051,288.645 299.305,290.808 299.279,281.51 				"/>
			</g>
			<g>
				<polygon style="fill:#A6452E;" points="309.699,275.493 309.726,284.791 305.972,286.958 305.946,277.66 				"/>
			</g>
			<g>
				<polygon style="fill:#A6452E;" points="316.367,271.644 316.393,280.942 312.64,283.109 312.613,273.811 				"/>
			</g>
			<g>
				<polygon style="fill:#A6452E;" points="323.034,267.794 323.061,277.092 319.307,279.259 319.281,269.962 				"/>
			</g>
		</g>
		<g>
			<g>
				<polygon style="fill:#A6452E;" points="303.025,292.778 303.051,302.076 299.305,304.239 299.279,294.941 				"/>
			</g>
			<g>
				<polygon style="fill:#A6452E;" points="309.699,288.925 309.726,298.222 305.972,300.389 305.946,291.092 				"/>
			</g>
			<g>
				<polygon style="fill:#A6452E;" points="316.367,285.075 316.393,294.373 312.64,296.54 312.613,287.242 				"/>
			</g>
			<g>
				<polygon style="fill:#A6452E;" points="323.034,281.226 323.061,290.523 319.307,292.691 319.281,283.393 				"/>
			</g>
		</g>
		<g>
			<g>
				<polygon style="fill:#A6452E;" points="333.793,248.798 333.871,276.61 331.275,278.109 331.196,250.297 				"/>
			</g>
			<g>
				<polygon style="fill:#A6452E;" points="338.125,246.296 338.204,274.109 335.608,275.608 335.529,247.796 				"/>
			</g>
			<g>
				<polygon style="fill:#A6452E;" points="342.45,243.8 342.529,271.612 339.932,273.111 339.853,245.299 				"/>
			</g>
		</g>
		<g>
			<g>
				<polygon style="fill:#A6452E;" points="302.876,313.283 302.955,341.096 300.358,342.595 300.28,314.782 				"/>
			</g>
			<g>
				<polygon style="fill:#A6452E;" points="307.209,310.782 307.287,338.594 304.691,340.093 304.612,312.281 				"/>
			</g>
			<g>
				<polygon style="fill:#A6452E;" points="311.533,308.285 311.612,336.098 309.016,337.596 308.937,309.784 				"/>
			</g>
		</g>
		<g>
			<g>
				<polygon style="fill:#6E2E1E;" points="275.705,261.047 275.538,320.054 272.949,318.56 273.117,259.552 				"/>
			</g>
			<g>
				<polygon style="fill:#6E2E1E;" points="280.038,263.548 279.87,322.555 277.274,321.056 277.441,262.049 				"/>
			</g>
			<g>
				<polygon style="fill:#6E2E1E;" points="284.362,266.045 284.195,325.052 281.599,323.553 281.766,264.546 				"/>
			</g>
		</g>
	</g>
	<g>
		<g style="enable-background:new    ;">
			<g>
				<polygon style="fill:#C03C1D;" points="280.3,292.315 280.115,357.808 254.562,372.657 254.748,307.164 				"/>
			</g>
			<g>
				<polygon style="fill:#862A14;" points="254.748,307.164 254.562,372.657 213.351,348.864 213.537,283.371 				"/>
			</g>
			<g>
				<polygon style="fill:#F94E26;" points="280.3,292.315 254.748,307.164 213.537,283.371 239.089,268.522 				"/>
			</g>
		</g>
		<g>
			<g>
				<polygon style="fill:#5C1D0E;" points="222.437,309.07 222.418,315.59 216.744,312.314 216.763,305.794 				"/>
			</g>
			<g>
				<polygon style="fill:#5C1D0E;" points="222.46,300.972 222.441,307.501 216.767,304.225 216.786,297.696 				"/>
			</g>
			<g>
				<polygon style="fill:#5C1D0E;" points="222.483,292.883 222.464,299.403 216.79,296.127 216.809,289.607 				"/>
			</g>
			<g>
				<polygon style="fill:#5C1D0E;" points="229.492,313.143 229.474,319.663 223.792,316.383 223.81,309.862 				"/>
			</g>
			<g>
				<polygon style="fill:#5C1D0E;" points="229.515,305.045 229.497,311.574 223.814,308.294 223.833,301.764 				"/>
			</g>
			<g>
				<polygon style="fill:#5C1D0E;" points="229.538,296.956 229.52,303.476 223.837,300.196 223.856,293.676 				"/>
			</g>
			<g>
				<polygon style="fill:#5C1D0E;" points="236.562,309.114 236.544,315.643 230.87,312.367 230.888,305.838 				"/>
			</g>
			<g>
				<polygon style="fill:#5C1D0E;" points="236.585,301.025 236.567,307.545 230.893,304.269 230.911,297.749 				"/>
			</g>
			<g>
				<polygon style="fill:#5C1D0E;" points="243.595,321.285 243.576,327.805 237.894,324.525 237.913,318.005 				"/>
			</g>
			<g>
				<polygon style="fill:#5C1D0E;" points="243.618,313.187 243.599,319.716 237.917,316.436 237.936,309.907 				"/>
			</g>
			<g>
				<polygon style="fill:#5C1D0E;" points="243.641,305.098 243.622,311.618 237.94,308.338 237.959,301.818 				"/>
			</g>
			<g>
				<polygon style="fill:#5C1D0E;" points="250.688,309.167 250.669,315.687 244.987,312.407 245.006,305.887 				"/>
			</g>
			<g>
				<polygon style="fill:#5C1D0E;" points="250.665,317.256 250.647,323.785 244.964,320.505 244.983,313.975 				"/>
			</g>
			<g>
				<polygon style="fill:#5C1D0E;" points="236.539,317.212 236.521,323.732 230.847,320.456 230.865,313.936 				"/>
			</g>
			<g>
				<polygon style="fill:#5C1D0E;" points="250.642,325.354 250.624,331.874 244.942,328.594 244.96,322.073 				"/>
			</g>
			<g>
				<polygon style="fill:#5C1D0E;" points="222.414,317.159 222.395,323.679 216.721,320.403 216.74,313.883 				"/>
			</g>
			<g>
				<polygon style="fill:#5C1D0E;" points="229.423,337.419 229.405,343.939 223.723,340.658 223.741,334.138 				"/>
			</g>
			<g>
				<polygon style="fill:#5C1D0E;" points="229.446,329.33 229.428,335.85 223.746,332.569 223.764,326.049 				"/>
			</g>
			<g>
				<polygon style="fill:#5C1D0E;" points="229.469,321.232 229.451,327.752 223.769,324.471 223.787,317.951 				"/>
			</g>
			<g>
				<polygon style="fill:#5C1D0E;" points="236.517,325.301 236.498,331.821 230.824,328.545 230.842,322.025 				"/>
			</g>
			<g>
				<polygon style="fill:#5C1D0E;" points="243.572,329.374 243.553,335.894 237.871,332.614 237.89,326.094 				"/>
			</g>
			<g>
				<polygon style="fill:#5C1D0E;" points="250.573,349.63 250.555,356.15 244.873,352.869 244.891,346.349 				"/>
			</g>
			<g>
				<polygon style="fill:#5C1D0E;" points="250.596,341.541 250.578,348.061 244.896,344.78 244.914,338.26 				"/>
			</g>
			<g>
				<polygon style="fill:#5C1D0E;" points="250.619,333.443 250.601,339.963 244.919,336.682 244.937,330.162 				"/>
			</g>
			<g>
				<polygon style="fill:#5C1D0E;" points="222.368,333.345 222.35,339.866 216.675,336.59 216.694,330.069 				"/>
			</g>
			<g>
				<polygon style="fill:#5C1D0E;" points="222.391,325.257 222.372,331.777 216.698,328.501 216.717,321.98 				"/>
			</g>
			<g>
				<polygon style="fill:#5C1D0E;" points="236.494,333.399 236.475,339.919 230.801,336.643 230.819,330.123 				"/>
			</g>
			<g>
				<polygon style="fill:#5C1D0E;" points="243.526,345.561 243.507,352.081 237.825,348.8 237.844,342.28 				"/>
			</g>
			<g>
				<polygon style="fill:#5C1D0E;" points="243.549,337.472 243.53,343.992 237.848,340.712 237.867,334.191 				"/>
			</g>
			<g>
				<polygon style="fill:#5C1D0E;" points="236.471,341.487 236.452,348.008 230.778,344.732 230.796,338.212 				"/>
			</g>
		</g>
		<g>
			<g>
				<polygon style="fill:#9E3118;" points="263.463,323.26 263.482,329.78 257.8,333.061 257.781,326.54 				"/>
			</g>
			<g>
				<polygon style="fill:#9E3118;" points="263.44,315.162 263.459,321.691 257.777,324.972 257.758,318.443 				"/>
			</g>
			<g>
				<polygon style="fill:#9E3118;" points="263.417,307.073 263.436,313.593 257.754,316.874 257.735,310.354 				"/>
			</g>
			<g>
				<polygon style="fill:#9E3118;" points="270.579,343.467 270.598,349.987 264.924,353.263 264.905,346.743 				"/>
			</g>
			<g>
				<polygon style="fill:#9E3118;" points="270.557,335.378 270.575,341.898 264.901,345.174 264.882,338.654 				"/>
			</g>
			<g>
				<polygon style="fill:#9E3118;" points="270.534,327.28 270.552,333.8 264.878,337.076 264.859,330.556 				"/>
			</g>
			<g>
				<polygon style="fill:#9E3118;" points="270.511,319.191 270.529,325.711 264.855,328.987 264.836,322.467 				"/>
			</g>
			<g>
				<polygon style="fill:#9E3118;" points="270.488,311.093 270.506,317.622 264.832,320.898 264.814,314.369 				"/>
			</g>
			<g>
				<polygon style="fill:#9E3118;" points="270.465,303.004 270.483,309.524 264.809,312.8 264.791,306.28 				"/>
			</g>
			<g>
				<polygon style="fill:#9E3118;" points="277.512,298.935 277.531,305.456 271.856,308.732 271.838,302.211 				"/>
			</g>
			<g>
				<polygon style="fill:#9E3118;" points="277.558,315.122 277.577,321.642 271.902,324.918 271.884,318.398 				"/>
			</g>
			<g>
				<polygon style="fill:#9E3118;" points="277.535,307.024 277.554,313.554 271.879,316.83 271.861,310.3 				"/>
			</g>
			<g>
				<polygon style="fill:#9E3118;" points="263.486,331.349 263.505,337.869 257.823,341.15 257.804,334.629 				"/>
			</g>
			<g>
				<polygon style="fill:#9E3118;" points="277.581,323.211 277.599,329.731 271.925,333.007 271.907,326.487 				"/>
			</g>
			<g>
				<polygon style="fill:#9E3118;" points="263.509,339.447 263.528,345.967 257.846,349.247 257.827,342.727 				"/>
			</g>
			<g>
				<polygon style="fill:#9E3118;" points="277.627,339.398 277.645,345.918 271.971,349.194 271.953,342.674 				"/>
			</g>
			<g>
				<polygon style="fill:#9E3118;" points="277.604,331.309 277.622,337.829 271.948,341.105 271.93,334.585 				"/>
			</g>
			<g>
				<polygon style="fill:#9E3118;" points="263.532,347.536 263.551,354.056 257.869,357.336 257.85,350.816 				"/>
			</g>
		</g>
	</g>
	<g>
		<g style="enable-background:new    ;">
			<g>
				<polygon style="fill:#007185;" points="239.506,329.912 239.363,380.291 213.811,395.14 213.953,344.761 				"/>
			</g>
			<g>
				<polygon style="fill:#004F5D;" points="213.953,344.761 213.811,395.14 172.6,371.347 172.743,320.968 				"/>
			</g>
			<g>
				<polygon style="fill:#0093AD;" points="239.506,329.912 213.953,344.761 172.743,320.968 198.295,306.119 				"/>
			</g>
		</g>
		<g>
			<g>
				<polygon style="fill:#003842;" points="179.374,335.812 179.362,339.82 175.874,337.806 175.885,333.798 				"/>
			</g>
			<g>
				<polygon style="fill:#003842;" points="179.39,330.09 179.379,334.098 175.89,332.084 175.902,328.076 				"/>
			</g>
			<g>
				<polygon style="fill:#003842;" points="184.598,338.828 184.587,342.836 181.098,340.822 181.11,336.814 				"/>
			</g>
			<g>
				<polygon style="fill:#003842;" points="184.614,333.106 184.603,337.114 181.115,335.1 181.126,331.092 				"/>
			</g>
			<g>
				<polygon style="fill:#003842;" points="189.839,336.122 189.827,340.13 186.339,338.117 186.35,334.108 				"/>
			</g>
			<g>
				<polygon style="fill:#003842;" points="195.038,350.587 195.027,354.595 191.531,352.577 191.542,348.569 				"/>
			</g>
			<g>
				<polygon style="fill:#003842;" points="195.055,344.865 195.043,348.873 191.547,346.855 191.559,342.847 				"/>
			</g>
			<g>
				<polygon style="fill:#003842;" points="195.071,339.143 195.059,343.151 191.563,341.133 191.575,337.125 				"/>
			</g>
			<g>
				<polygon style="fill:#003842;" points="200.23,365.048 200.219,369.065 196.731,367.051 196.742,363.034 				"/>
			</g>
			<g>
				<polygon style="fill:#003842;" points="200.247,359.326 200.235,363.343 196.747,361.329 196.758,357.312 				"/>
			</g>
			<g style="enable-background:new    ;">
				<g>
					<polygon style="fill:#003842;" points="200.263,353.604 200.251,357.612 196.763,355.598 196.775,351.59 					"/>
				</g>
				<g>
					<polygon style="fill:#003842;" points="200.279,347.882 200.268,351.89 196.779,349.876 196.791,345.868 					"/>
				</g>
			</g>
			<g>
				<polygon style="fill:#003842;" points="200.295,342.159 200.284,346.168 196.796,344.154 196.807,340.146 				"/>
			</g>
			<g>
				<polygon style="fill:#003842;" points="205.503,350.898 205.492,354.906 202.004,352.892 202.015,348.884 				"/>
			</g>
			<g>
				<polygon style="fill:#003842;" points="205.52,345.176 205.508,349.184 202.02,347.17 202.031,343.162 				"/>
			</g>
			<g>
				<polygon style="fill:#003842;" points="210.679,371.08 210.668,375.098 207.179,373.084 207.191,369.066 				"/>
			</g>
			<g>
				<polygon style="fill:#003842;" points="210.695,365.358 210.684,369.375 207.196,367.362 207.207,363.344 				"/>
			</g>
			<g>
				<polygon style="fill:#003842;" points="210.711,359.636 210.7,363.644 207.212,361.63 207.223,357.622 				"/>
			</g>
			<g>
				<polygon style="fill:#003842;" points="210.728,353.914 210.716,357.922 207.228,355.908 207.24,351.9 				"/>
			</g>
			<g>
				<polygon style="fill:#003842;" points="210.744,348.192 210.733,352.2 207.244,350.186 207.256,346.178 				"/>
			</g>
			<g>
				<polygon style="fill:#003842;" points="189.822,341.844 189.811,345.853 186.323,343.839 186.334,339.831 				"/>
			</g>
			<g>
				<polygon style="fill:#003842;" points="179.357,341.534 179.346,345.542 175.858,343.528 175.869,339.52 				"/>
			</g>
			<g>
				<polygon style="fill:#003842;" points="184.582,344.55 184.57,348.558 181.082,346.544 181.094,342.536 				"/>
			</g>
			<g>
				<polygon style="fill:#003842;" points="189.774,359.011 189.762,363.028 186.274,361.014 186.286,356.997 				"/>
			</g>
			<g>
				<polygon style="fill:#003842;" points="189.79,353.289 189.779,357.306 186.29,355.292 186.302,351.275 				"/>
			</g>
			<g>
				<polygon style="fill:#003842;" points="189.806,347.566 189.795,351.575 186.307,349.561 186.318,345.553 				"/>
			</g>
			<g>
				<polygon style="fill:#003842;" points="205.471,362.342 205.46,366.359 201.971,364.345 201.983,360.328 				"/>
			</g>
			<g>
				<polygon style="fill:#003842;" points="205.487,356.62 205.476,360.628 201.988,358.614 201.999,354.606 				"/>
			</g>
			<g>
				<polygon style="fill:#003842;" points="179.309,358.709 179.297,362.717 175.809,360.703 175.821,356.695 				"/>
			</g>
			<g>
				<polygon style="fill:#003842;" points="179.325,352.978 179.314,356.995 175.825,354.981 175.837,350.964 				"/>
			</g>
			<g>
				<polygon style="fill:#003842;" points="179.341,347.256 179.33,351.273 175.842,349.259 175.853,345.242 				"/>
			</g>
			<g>
				<polygon style="fill:#003842;" points="184.566,350.272 184.554,354.289 181.066,352.276 181.077,348.258 				"/>
			</g>
			<g>
				<polygon style="fill:#003842;" points="195.022,356.309 195.011,360.327 191.515,358.308 191.526,354.291 				"/>
			</g>
			<g>
				<polygon style="fill:#003842;" points="184.533,361.725 184.522,365.734 181.034,363.72 181.045,359.712 				"/>
			</g>
			<g>
				<polygon style="fill:#003842;" points="184.549,355.994 184.538,360.012 181.05,357.998 181.061,353.98 				"/>
			</g>
			<g>
				<polygon style="fill:#003842;" points="194.99,367.763 194.978,371.771 191.482,369.752 191.494,365.744 				"/>
			</g>
			<g>
				<polygon style="fill:#003842;" points="195.006,362.031 194.995,366.049 191.499,364.03 191.51,360.013 				"/>
			</g>
			<g>
				<polygon style="fill:#003842;" points="205.455,368.064 205.443,372.081 201.955,370.067 201.967,366.05 				"/>
			</g>
			<g>
				<polygon style="fill:#003842;" points="189.757,364.742 189.746,368.75 186.258,366.736 186.269,362.728 				"/>
			</g>
			<g>
				<polygon style="fill:#003842;" points="200.214,370.779 200.203,374.787 196.715,372.773 196.726,368.765 				"/>
			</g>
			<g>
				<polygon style="fill:#003842;" points="205.438,373.795 205.427,377.803 201.939,375.789 201.95,371.781 				"/>
			</g>
			<g>
				<polygon style="fill:#003842;" points="210.663,376.811 210.651,380.82 207.163,378.806 207.175,374.798 				"/>
			</g>
		</g>
		<g>
			<g>
				<polygon style="fill:#005766;" points="221.326,368.298 221.338,372.315 217.85,374.329 217.838,370.312 				"/>
			</g>
			<g>
				<polygon style="fill:#005766;" points="221.31,362.576 221.322,366.593 217.833,368.607 217.822,364.59 				"/>
			</g>
			<g>
				<polygon style="fill:#005766;" points="221.294,356.853 221.305,360.862 217.817,362.876 217.806,358.867 				"/>
			</g>
			<g>
				<polygon style="fill:#005766;" points="221.278,351.131 221.289,355.14 217.801,357.154 217.79,353.145 				"/>
			</g>
			<g>
				<polygon style="fill:#005766;" points="221.262,345.409 221.273,349.418 217.785,351.431 217.773,347.423 				"/>
			</g>
			<g>
				<polygon style="fill:#005766;" points="226.486,342.393 226.497,346.401 223.009,348.415 222.998,344.407 				"/>
			</g>
			<g>
				<polygon style="fill:#005766;" points="231.734,345.094 231.746,349.103 228.25,351.121 228.238,347.113 				"/>
			</g>
			<g>
				<polygon style="fill:#005766;" points="231.718,339.372 231.73,343.38 228.234,345.399 228.222,341.391 				"/>
			</g>
			<g>
				<polygon style="fill:#005766;" points="236.991,353.522 237.003,357.539 233.514,359.553 233.503,355.536 				"/>
			</g>
			<g>
				<polygon style="fill:#005766;" points="236.975,347.8 236.986,351.808 233.498,353.822 233.487,349.814 				"/>
			</g>
			<g>
				<polygon style="fill:#005766;" points="236.959,342.078 236.97,346.086 233.482,348.1 233.471,344.092 				"/>
			</g>
			<g>
				<polygon style="fill:#005766;" points="236.943,336.356 236.954,340.364 233.466,342.378 233.454,338.37 				"/>
			</g>
			<g>
				<polygon style="fill:#005766;" points="226.567,371.013 226.578,375.021 223.09,377.035 223.079,373.026 				"/>
			</g>
			<g>
				<polygon style="fill:#005766;" points="226.551,365.281 226.562,369.299 223.074,371.313 223.063,367.295 				"/>
			</g>
			<g>
				<polygon style="fill:#005766;" points="226.535,359.559 226.546,363.577 223.058,365.59 223.046,361.573 				"/>
			</g>
			<g>
				<polygon style="fill:#005766;" points="226.518,353.837 226.53,357.845 223.042,359.859 223.03,355.851 				"/>
			</g>
			<g>
				<polygon style="fill:#005766;" points="226.502,348.115 226.514,352.123 223.025,354.137 223.014,350.129 				"/>
			</g>
			<g>
				<polygon style="fill:#005766;" points="231.751,350.816 231.762,354.825 228.266,356.843 228.255,352.835 				"/>
			</g>
			<g>
				<polygon style="fill:#005766;" points="231.783,362.261 231.794,366.278 228.298,368.296 228.287,364.279 				"/>
			</g>
			<g>
				<polygon style="fill:#005766;" points="231.767,356.539 231.778,360.556 228.282,362.574 228.271,358.557 				"/>
			</g>
			<g>
				<polygon style="fill:#005766;" points="237.024,364.975 237.035,368.984 233.547,370.997 233.536,366.989 				"/>
			</g>
			<g>
				<polygon style="fill:#005766;" points="237.007,359.244 237.019,363.262 233.531,365.275 233.519,361.258 				"/>
			</g>
			<g>
				<polygon style="fill:#005766;" points="221.343,374.029 221.354,378.037 217.866,380.051 217.855,376.043 				"/>
			</g>
			<g>
				<polygon style="fill:#005766;" points="231.799,367.992 231.811,372 228.315,374.018 228.303,370.01 				"/>
			</g>
		</g>
		<g>
			<g style="enable-background:new    ;">
				<g>
					<polygon style="fill:#007185;" points="199.804,308.547 199.797,310.963 181.14,321.805 181.147,319.389 					"/>
				</g>
				<g>
					<polygon style="fill:#004F5D;" points="231.104,326.618 231.097,329.034 199.797,310.963 199.804,308.547 					"/>
				</g>
				<g>
					<polygon style="fill:#004F5D;" points="212.461,339.886 212.454,342.302 176.952,321.805 176.959,319.389 					"/>
				</g>
				<g>
					<polygon style="fill:#007185;" points="235.296,326.616 235.289,329.032 212.454,342.302 212.461,339.886 					"/>
				</g>
				<g>
					<path style="fill:#00ADCC;" d="M199.794,306.119l35.502,20.497l-22.835,13.27l-35.502-20.497L199.794,306.119z M212.447,337.46
						l18.657-10.842l-31.3-18.071l-18.657,10.842L212.447,337.46"/>
				</g>
			</g>
		</g>
	</g>
	<g>
		<g>
			<path style="fill:#FFFFFF;" d="M258.521,270.86l-6.724,6.724c-6.069-6.069-15.944-6.069-22.013,0l-6.724-6.724
				C232.837,261.084,248.744,261.084,258.521,270.86z"/>
		</g>
		<g>
			<path style="fill:#FFFFFF;" d="M269.497,259.884l-6.724,6.724c-12.121-12.122-31.845-12.122-43.966,0l-6.724-6.724
				C227.913,244.054,253.668,244.054,269.497,259.884z"/>
		</g>
		<path style="fill:#FFFFFF;" d="M234.233,282.033l6.557,6.557l6.557-6.557C243.726,278.412,237.855,278.412,234.233,282.033z"/>
	</g>
</g>
<g id="DESIGNED_BY_FREEPIK">
	<g>
		<g id="XMLID_319_">
			<g id="XMLID_338_">
				<path id="XMLID_346_" style="fill:#F9FBFC;" d="M260.104,465.465c-0.432,0.443-0.803,0.931-1.108,1.453l-0.465-0.241
					c-0.067-0.298-0.349-0.503-0.659-0.466c-0.331,0.039-0.568,0.339-0.529,0.67c0.039,0.331,0.339,0.568,0.67,0.529
					c0.065-0.008,0.127-0.026,0.183-0.052l0.452,0.234c-0.251,0.554-0.433,1.139-0.539,1.744l0.747,0.132
					c0.23-1.306,0.85-2.507,1.792-3.473L260.104,465.465z"/>
				<path id="XMLID_345_" style="fill:#F9FBFC;" d="M265.592,463.163c-0.171,0-0.341,0.006-0.51,0.017l-0.074-0.626
					c0.188-0.149,0.296-0.389,0.266-0.645c-0.046-0.393-0.402-0.674-0.795-0.628c-0.393,0.046-0.674,0.402-0.628,0.795
					c0.03,0.254,0.189,0.461,0.405,0.564l0.073,0.624c-0.714,0.116-1.403,0.332-2.06,0.646l0.327,0.684
					c0.934-0.447,1.942-0.673,2.995-0.673c0.496,0,0.993,0.053,1.475,0.158l0.161-0.741
					C266.692,463.222,266.142,463.163,265.592,463.163z"/>
				<path id="XMLID_344_" style="fill:#F9FBFC;" d="M272.194,465.711c0.331-0.04,0.566-0.341,0.526-0.672
					c-0.04-0.331-0.341-0.566-0.672-0.526c-0.309,0.038-0.535,0.304-0.53,0.609l-0.416,0.363c-0.418-0.43-0.89-0.813-1.408-1.139
					l-0.404,0.641c1.134,0.715,2.021,1.726,2.563,2.925l0.691-0.313c-0.251-0.554-0.568-1.072-0.942-1.545l0.402-0.351
					C272.065,465.716,272.129,465.719,272.194,465.711z"/>
				<path id="XMLID_343_" style="fill:#F9FBFC;" d="M265.044,473.372c-0.386,0.023-0.775,0.035-1.157,0.035
					c-0.88,0-1.733-0.061-2.478-0.179c-0.39-0.062-0.846-0.155-1.27-0.292c1.046,1.861,3.069,3.125,5.388,3.125
					c2.855,0,5.262-1.916,5.95-4.504c-0.682,0.449-1.505,0.825-2.459,1.123C267.839,473.047,266.464,473.286,265.044,473.372z"/>
				<path id="XMLID_339_" style="fill:#F9FBFC;" d="M265.592,464.68c-3.352,0-6.08,2.666-6.08,5.943
					c0,0.426,0.046,0.849,0.137,1.261c0.673,0.483,2.706,0.89,5.348,0.731c2.879-0.173,5.297-0.957,6.672-2.159
					c-0.005-0.195-0.021-0.39-0.045-0.582C271.244,466.913,268.65,464.68,265.592,464.68z M263.432,471.194
					c-1.02,0-1.85-0.83-1.85-1.85c0-1.02,0.83-1.85,1.85-1.85c1.02,0,1.85,0.83,1.85,1.85
					C265.282,470.365,264.452,471.194,263.432,471.194z M268.17,470.286c-0.75,0-1.36-0.61-1.36-1.36s0.61-1.361,1.36-1.361
					c0.75,0,1.361,0.61,1.361,1.361S268.92,470.286,268.17,470.286z"/>
			</g>
			<path id="XMLID_336_" style="fill:#F9FBFC;" d="M281.595,466.547c-0.295-0.116-0.805-0.309-1.382-0.237
				c-0.551,0.069-0.844,0.341-0.844,1.007v0.866h2.228v1.717h-2.228v5.455h-1.932v-5.455h-1.34v-1.717h1.34v-0.888
				c0-1.68,0.896-2.783,2.568-2.783c0.643,0,1.157,0.122,1.59,0.308L281.595,466.547z"/>
			<path id="XMLID_334_" style="fill:#F9FBFC;" d="M286.298,469.879c-0.177-0.03-0.358-0.046-0.526-0.046
				c-0.896,0-1.51,0.548-1.51,1.614v3.908h-1.932v-7.172h1.873v0.785c0.451-0.673,1.14-0.977,2.021-0.977
				c0.414,0,0.848,0.128,1.094,0.337L286.298,469.879z"/>
			<path id="XMLID_331_" style="fill:#F9FBFC;" d="M293.965,471.757c0,0.222-0.015,0.489-0.037,0.651h-5.085
				c0.207,1.036,0.933,1.488,1.843,1.488c0.622,0,1.295-0.252,1.813-0.688l1.132,1.243c-0.814,0.748-1.85,1.088-3.057,1.088
				c-2.198,0-3.723-1.495-3.723-3.753c0-2.258,1.48-3.797,3.627-3.797C292.544,467.99,293.958,469.522,293.965,471.757z
				 M288.851,471.091h3.175c-0.177-0.918-0.733-1.436-1.562-1.436C289.554,469.655,289.021,470.203,288.851,471.091z"/>
			<path id="XMLID_328_" style="fill:#F9FBFC;" d="M301.618,471.757c0,0.222-0.015,0.489-0.037,0.651h-5.085
				c0.207,1.036,0.933,1.488,1.843,1.488c0.622,0,1.295-0.252,1.813-0.688l1.132,1.243c-0.814,0.748-1.85,1.088-3.057,1.088
				c-2.198,0-3.723-1.495-3.723-3.753c0-2.258,1.48-3.797,3.627-3.797C300.197,467.99,301.611,469.522,301.618,471.757z
				 M296.504,471.091h3.175c-0.178-0.918-0.733-1.436-1.562-1.436C297.207,469.655,296.674,470.203,296.504,471.091z"/>
			<path id="XMLID_325_" style="fill:#F9FBFC;" d="M309.964,471.764c0,2.154-1.495,3.775-3.471,3.775
				c-0.962,0-1.643-0.378-2.109-0.933v3.708h-1.924v-10.133h1.887v0.792c0.466-0.585,1.155-0.984,2.139-0.984
				C308.469,467.99,309.964,469.61,309.964,471.764z M304.287,471.764c0,1.132,0.747,1.976,1.843,1.976
				c1.14,0,1.85-0.881,1.85-1.976c0-1.095-0.71-1.976-1.85-1.976C305.035,469.788,304.287,470.632,304.287,471.764z"/>
			<path id="XMLID_322_" style="fill:#F9FBFC;" d="M313.068,465.836c0,0.696-0.54,1.229-1.236,1.229
				c-0.696,0-1.229-0.533-1.229-1.229c0-0.696,0.533-1.243,1.229-1.243C312.527,464.592,313.068,465.14,313.068,465.836z
				 M312.809,475.354h-1.932v-7.172h1.932V475.354z"/>
			<path id="XMLID_320_" style="fill:#F9FBFC;" d="M316.032,470.736l2.701-2.554h2.368l-3.479,3.375l3.501,3.797h-2.376
				l-2.716-2.901v2.901H314.1v-10.658h1.932V470.736z"/>
		</g>
		<g>
			<path style="fill:#F9FBFC;" d="M184.412,475.289v-1.055c-0.527,0.718-1.391,1.23-2.387,1.23c-1.846,0-3.149-1.406-3.149-3.706
				c0-2.256,1.289-3.721,3.149-3.721c0.952,0,1.816,0.469,2.387,1.245v-3.765h1.099v9.77H184.412z M184.412,473.37v-3.208
				c-0.395-0.615-1.245-1.143-2.124-1.143c-1.421,0-2.27,1.172-2.27,2.739c0,1.567,0.85,2.724,2.27,2.724
				C183.168,474.483,184.017,473.986,184.412,473.37z"/>
			<path style="fill:#F9FBFC;" d="M186.932,471.744c0-2.051,1.465-3.706,3.486-3.706c2.139,0,3.398,1.67,3.398,3.794v0.279h-5.727
				c0.088,1.333,1.025,2.446,2.549,2.446c0.805,0,1.626-0.322,2.182-0.894l0.527,0.718c-0.703,0.703-1.655,1.084-2.812,1.084
				C188.44,475.465,186.932,473.956,186.932,471.744z M190.403,468.947c-1.509,0-2.256,1.274-2.314,2.358h4.643
				C192.718,470.25,192.015,468.947,190.403,468.947z"/>
			<path style="fill:#F9FBFC;" d="M194.607,474.351l0.571-0.791c0.469,0.542,1.362,1.011,2.329,1.011c1.084,0,1.67-0.513,1.67-1.216
				c0-1.714-4.38-0.659-4.38-3.281c0-1.098,0.952-2.036,2.636-2.036c1.201,0,2.051,0.454,2.622,1.026l-0.513,0.762
				c-0.424-0.513-1.201-0.894-2.109-0.894c-0.967,0-1.567,0.483-1.567,1.113c0,1.552,4.38,0.527,4.38,3.281
				c0,1.187-0.952,2.138-2.783,2.138C196.306,475.465,195.325,475.113,194.607,474.351z"/>
			<path style="fill:#F9FBFC;" d="M201.477,466.471c0-0.41,0.337-0.747,0.732-0.747c0.41,0,0.747,0.337,0.747,0.747
				c0,0.41-0.337,0.732-0.747,0.732C201.814,467.203,201.477,466.881,201.477,466.471z M201.667,475.289v-7.075h1.099v7.075H201.667
				z"/>
			<path style="fill:#F9FBFC;" d="M204.582,477.105l0.556-0.82c0.586,0.703,1.289,0.967,2.3,0.967c1.172,0,2.27-0.571,2.27-2.124
				v-1.011c-0.513,0.718-1.377,1.26-2.373,1.26c-1.845,0-3.149-1.377-3.149-3.662c0-2.27,1.289-3.677,3.149-3.677
				c0.952,0,1.802,0.469,2.373,1.245v-1.069h1.098v6.87c0,2.344-1.641,3.076-3.369,3.076
				C206.237,478.16,205.417,477.926,204.582,477.105z M209.709,473.253v-3.091c-0.381-0.615-1.23-1.143-2.109-1.143
				c-1.421,0-2.27,1.128-2.27,2.695c0,1.553,0.849,2.695,2.27,2.695C208.478,474.41,209.328,473.868,209.709,473.253z"/>
			<path style="fill:#F9FBFC;" d="M217.413,475.289v-4.629c0-1.245-0.63-1.641-1.582-1.641c-0.865,0-1.685,0.527-2.095,1.099v5.17
				h-1.099v-7.075h1.099v1.025c0.498-0.586,1.465-1.201,2.519-1.201c1.48,0,2.256,0.747,2.256,2.285v4.966H217.413z"/>
			<path style="fill:#F9FBFC;" d="M219.932,471.744c0-2.051,1.465-3.706,3.486-3.706c2.139,0,3.398,1.67,3.398,3.794v0.279h-5.727
				c0.088,1.333,1.025,2.446,2.549,2.446c0.806,0,1.626-0.322,2.183-0.894l0.527,0.718c-0.703,0.703-1.655,1.084-2.812,1.084
				C221.441,475.465,219.932,473.956,219.932,471.744z M223.404,468.947c-1.509,0-2.256,1.274-2.314,2.358h4.643
				C225.718,470.25,225.015,468.947,223.404,468.947z"/>
			<path style="fill:#F9FBFC;" d="M233.35,475.289v-1.055c-0.527,0.718-1.392,1.23-2.388,1.23c-1.846,0-3.149-1.406-3.149-3.706
				c0-2.256,1.289-3.721,3.149-3.721c0.952,0,1.817,0.469,2.388,1.245v-3.765h1.098v9.77H233.35z M233.35,473.37v-3.208
				c-0.396-0.615-1.245-1.143-2.124-1.143c-1.421,0-2.27,1.172-2.27,2.739c0,1.567,0.849,2.724,2.27,2.724
				C232.105,474.483,232.954,473.986,233.35,473.37z"/>
			<path style="fill:#F9FBFC;" d="M239.692,475.289v-9.77h1.098v3.765c0.572-0.776,1.421-1.245,2.388-1.245
				c1.845,0,3.149,1.465,3.149,3.721c0,2.299-1.304,3.706-3.149,3.706c-0.996,0-1.86-0.513-2.388-1.23v1.055H239.692z
				 M242.9,474.483c1.436,0,2.285-1.157,2.285-2.724c0-1.568-0.85-2.739-2.285-2.739c-0.864,0-1.728,0.527-2.109,1.143v3.208
				C241.171,473.986,242.036,474.483,242.9,474.483z"/>
			<path style="fill:#F9FBFC;" d="M247.528,477.061c0.161,0.073,0.425,0.117,0.601,0.117c0.483,0,0.805-0.161,1.055-0.747
				l0.469-1.069l-2.959-7.148h1.187l2.358,5.8l2.344-5.8h1.201l-3.545,8.51c-0.425,1.025-1.143,1.421-2.08,1.435
				c-0.234,0-0.601-0.044-0.806-0.103L247.528,477.061z"/>
		</g>
	</g>
</g>
</svg>
